{
  "accessors": [
    {
      "bufferView": 2,
      "componentType": 5126,
      "count": 15102,
      "max": [
        0.64347702264785767,
        0.36127099394798279,
        1.1160600185394287
      ],
      "min": [
        -0.66561299562454224,
        -0.48002499341964722,
        -0.48291298747062683
      ],
      "type": "VEC3"
    },
    {
      "bufferView": 2,
      "byteOffset": 181224,
      "componentType": 5126,
      "count": 15102,
      "max": [
        0.99992263317108154,
        0.99998390674591064,
        0.9999622106552124
      ],
      "min": [
        -0.99994885921478271,
        -0.9999241828918457,
        -0.9993671178817749
      ],
      "type": "VEC3"
    },
    {
      "bufferView": 3,
      "componentType": 5126,
      "count": 15102,
      "max": [
        0.9999879002571106,
        0.9999958872795105,
        0.99998515844345093,
        1
      ],
      "min": [
        -0.99463391304016113,
        -0.99995726346969604,
        -0.99838656187057495,
        -1
      ],
      "type": "VEC4"
    },
    {
      "bufferView": 1,
      "componentType": 5126,
      "count": 15102,
      "max": [
        0.94247698783874512,
        0.99974101781845093
      ],
      "min": [
        0.00025899999309331179,
        0.00025899999309331179
      ],
      "type": "VEC2"
    },
    {
      "bufferView": 0,
      "componentType": 5125,
      "count": 85971,
      "max": [
        15101
      ],
      "min": [
        0
      ],
      "type": "SCALAR"
    },
    {
      "bufferView": 2,
      "byteOffset": 362448,
      "componentType": 5126,
      "count": 471,
      "max": [
        0.64076602458953857,
        0.36127099394798279,
        1.0553699731826782
      ],
      "min": [
        -0.55761897563934326,
        -0.22394199669361115,
        -0.48291298747062683
      ],
      "type": "VEC3"
    },
    {
      "bufferView": 2,
      "byteOffset": 368100,
      "componentType": 5126,
      "count": 471,
      "max": [
        0.034401461482048035,
        0.99924236536026001,
        0.018200773745775223
      ],
      "min": [
        -0.015699993818998337,
        0.046399984508752823,
        -0.99879962205886841
      ],
      "type": "VEC3"
    },
    {
      "bufferView": 1,
      "byteOffset": 120816,
      "componentType": 5126,
      "count": 471,
      "max": [
        0,
        0
      ],
      "min": [
        0,
        0
      ],
      "type": "VEC2"
    },
    {
      "bufferView": 0,
      "byteOffset": 343884,
      "componentType": 5125,
      "count": 1401,
      "max": [
        470
      ],
      "min": [
        0
      ],
      "type": "SCALAR"
    }
  ],
  "asset": {
    "extras": {
      "author": "juanbrualla (https://sketchfab.com/juanbrualla)",
      "license": "CC-BY-NC-4.0 (http://creativecommons.org/licenses/by-nc/4.0/)",
      "source": "https://sketchfab.com/3d-models/julius-caesar-phrygie-turkey-f97f4c2629124b3fa8f5499aeac393db",
      "title": "JULIUS CAESAR - PHRYGIE TURKEY"
    },
    "generator": "Sketchfab-9.92.1",
    "version": "2.0"
  },
  "bufferViews": [
    {
      "buffer": 0,
      "byteLength": 349488,
      "byteOffset": 0,
      "name": "floatBufferViews",
      "target": 34963
    },
    {
      "buffer": 0,
      "byteLength": 124584,
      "byteOffset": 349488,
      "byteStride": 8,
      "name": "floatBufferViews",
      "target": 34962
    },
    {
      "buffer": 0,
      "byteLength": 373752,
      "byteOffset": 474072,
      "byteStride": 12,
      "name": "floatBufferViews",
      "target": 34962
    },
    {
      "buffer": 0,
      "byteLength": 241632,
      "byteOffset": 847824,
      "byteStride": 16,
      "name": "floatBufferViews",
      "target": 34962
    }
  ],
  "buffers": [
    {
      "byteLength": 1089456,
      "uri": "scene.bin"
    }
  ],
  "images": [
    {
      "uri": "textures/Default_OBJ_baseColor.jpeg"
    },
    {
      "uri": "textures/Default_OBJ_metallicRoughness.png"
    },
    {
      "uri": "textures/Default_OBJ_normal.jpeg"
    }
  ],
  "materials": [
    {
      "doubleSided": true,
      "name": "Default_OBJ",
      "normalTexture": {
        "index": 2,
        "scale": 1,
        "texCoord": 0
      },
      "occlusionTexture": {
        "index": 1,
        "strength": 1,
        "texCoord": 0
      },
      "pbrMetallicRoughness": {
        "baseColorFactor": [
          1,
          1,
          1,
          1
        ],
        "baseColorTexture": {
          "index": 0,
          "texCoord": 0
        },
        "metallicFactor": 0.44771186779113759,
        "metallicRoughnessTexture": {
          "index": 1,
          "texCoord": 0
        },
        "roughnessFactor": 0.80635083268962915
      }
    },
    {
      "doubleSided": true,
      "emissiveFactor": [
        0,
        0,
        0
      ],
      "name": "Material.001",
      "pbrMetallicRoughness": {
        "baseColorFactor": [
          0.16642199999999999,
          0.14077100000000001,
          0.16651099999999999,
          1
        ],
        "metallicFactor": 0,
        "roughnessFactor": 0.80635083268962915
      }
    }
  ],
  "meshes": [
    {
      "primitives": [
        {
          "attributes": {
            "NORMAL": 1,
            "POSITION": 0,
            "TANGENT": 2,
            "TEXCOORD_0": 3
          },
          "indices": 4,
          "material": 0,
          "mode": 4
        }
      ]
    },
    {
      "primitives": [
        {
          "attributes": {
            "NORMAL": 6,
            "POSITION": 5,
            "TEXCOORD_0": 7
          },
          "indices": 8,
          "material": 1,
          "mode": 4
        }
      ]
    }
  ],
  "nodes": [
    {
      "children": [
        1
      ],
      "name": "RootNode (gltf orientation matrix)",
      "rotation": [
        -0.70710678118654746,
        -0,
        -0,
        0.70710678118654757
      ]
    },
    {
      "children": [
        2
      ],
      "name": "RootNode (model correction matrix)"
    },
    {
      "children": [
        3,
        4
      ],
      "name": "CAESAR_FINAL.obj.cleaner.materialmerger.gles"
    },
    {
      "mesh": 0,
      "name": ""
    },
    {
      "mesh": 1,
      "name": ""
    }
  ],
  "samplers": [
    {
      "magFilter": 9729,
      "minFilter": 9987,
      "wrapS": 10497,
      "wrapT": 10497
    }
  ],
  "scene": 0,
  "scenes": [
    {
      "name": "OSG_Scene",
      "nodes": [
        0
      ]
    }
  ],
  "textures": [
    {
      "sampler": 0,
      "source": 0
    },
    {
      "sampler": 0,
      "source": 1
    },
    {
      "sampler": 0,
      "source": 2
    }
  ]
}

